<?xml version="1.0" encoding="UTF-8"?>
<svg id="Layer_2" xmlns="http://www.w3.org/2000/svg" viewBox="0 0 262.5 76.08">
  <defs>
    <style>
      .cls-1 {
        fill: none;
        stroke: #fff;
        stroke-miterlimit: 10;
        stroke-width: 1.02px;
      }

      .cls-2 {
        fill: #fff;
      }

      .cls-3 {
        fill: #3e4194;
      }

      .cls-4 {
        fill: #ec3337;
      }

      .cls-5 {
        fill-rule: evenodd;
      }
    </style>
  </defs>
  <g id="Layer_1-2" data-name="Layer_1">
    <g>
      <rect class="cls-3" x=".51" y=".51" width="255.71" height="75.06"/>
      <rect class="cls-4" x="123.42" y=".51" width="132.8" height="75.06"/>
      <g>
        <polygon class="cls-2" points="31.59 46.81 40.28 46.81 40.28 52.76 23.82 52.76 23.82 24.79 31.59 24.79 31.59 46.81"/>
        <path class="cls-2" d="M47.67,51.65c-1.76-.93-3.14-2.25-4.14-3.97-1-1.72-1.51-3.74-1.51-6.07s.51-4.31,1.53-6.03c1.02-1.72,2.4-3.04,4.16-3.97,1.76-.92,3.75-1.39,5.97-1.39s4.21.46,5.97,1.39c1.76.92,3.15,2.25,4.16,3.97,1.02,1.72,1.53,3.73,1.53,6.03s-.51,4.32-1.53,6.05c-1.02,1.73-2.42,3.06-4.18,3.99-1.77.92-3.77,1.39-5.99,1.39s-4.21-.46-5.97-1.39M56.35,45.08c.73-.81,1.09-1.96,1.09-3.47s-.36-2.66-1.09-3.45c-.73-.79-1.62-1.19-2.68-1.19s-1.94.4-2.65,1.19c-.72.79-1.07,1.95-1.07,3.45s.34,2.7,1.03,3.49c.69.79,1.57,1.19,2.66,1.19s1.99-.4,2.72-1.21Z"/>
        <path class="cls-2" d="M68.66,35.58c.95-1.72,2.28-3.04,3.99-3.97,1.7-.92,3.65-1.39,5.85-1.39,2.83,0,5.21.77,7.14,2.32,1.93,1.55,3.17,3.71,3.73,6.49h-8.25c-.48-1.45-1.41-2.18-2.78-2.18-.98,0-1.75.4-2.32,1.21-.57.81-.85,1.99-.85,3.55s.28,2.75.85,3.57c.57.82,1.34,1.23,2.32,1.23,1.4,0,2.33-.73,2.78-2.18h8.25c-.55,2.75-1.8,4.91-3.73,6.47-1.93,1.56-4.31,2.34-7.14,2.34-2.2,0-4.14-.46-5.85-1.39-1.71-.93-3.04-2.25-3.99-3.97-.95-1.72-1.43-3.74-1.43-6.07s.48-4.31,1.43-6.03"/>
        <path class="cls-2" d="M92.55,35.58c.83-1.72,1.97-3.04,3.41-3.97,1.44-.93,3.05-1.39,4.82-1.39,1.53,0,2.85.31,3.96.91,1.11.61,1.97,1.43,2.58,2.46v-3.09h7.77v22.26h-7.77v-3.1c-.61,1.03-1.47,1.85-2.6,2.46-1.12.61-2.44.91-3.94.91-1.77,0-3.38-.46-4.82-1.39-1.44-.93-2.58-2.25-3.41-3.99-.83-1.73-1.25-3.75-1.25-6.05s.42-4.31,1.25-6.03M106.15,38.24c-.78-.82-1.74-1.23-2.87-1.23s-2.13.4-2.89,1.21c-.77.81-1.15,1.94-1.15,3.39s.38,2.56,1.15,3.39c.77.83,1.73,1.25,2.89,1.25s2.1-.41,2.87-1.23c.78-.82,1.17-1.96,1.17-3.41s-.39-2.55-1.17-3.37Z"/>
        <rect class="cls-2" x="119.53" y="23.4" width="7.77" height="29.36"/>
        <path class="cls-2" d="M168.41,32.84c1.6,1.69,2.4,4.01,2.4,6.94v12.98h-7.77v-11.95c0-1.19-.33-2.11-.99-2.78-.66-.66-1.56-.99-2.7-.99s-2.03.33-2.69.99c-.66.66-1,1.58-1,2.78v11.95h-7.77v-11.95c0-1.19-.32-2.11-.97-2.78-.65-.66-1.54-.99-2.68-.99s-2.08.33-2.74.99c-.66.66-.99,1.58-.99,2.78v11.95h-7.77v-22.26h7.77v2.93c.69-.95,1.58-1.71,2.67-2.28,1.1-.57,2.36-.85,3.79-.85,1.64,0,3.1.36,4.38,1.07,1.28.71,2.29,1.72,3.03,3.02.79-1.22,1.84-2.2,3.13-2.96,1.29-.75,2.72-1.13,4.28-1.13,2.8,0,5,.85,6.6,2.54"/>
        <path class="cls-2" d="M175.03,35.58c.83-1.72,1.97-3.04,3.41-3.97,1.44-.93,3.05-1.39,4.82-1.39,1.53,0,2.85.31,3.96.91,1.11.61,1.97,1.43,2.58,2.46v-3.09h7.77v22.26h-7.77v-3.1c-.61,1.03-1.47,1.85-2.59,2.46-1.13.61-2.44.91-3.95.91-1.77,0-3.37-.46-4.82-1.39-1.44-.93-2.58-2.25-3.41-3.99-.83-1.73-1.25-3.75-1.25-6.05s.42-4.31,1.25-6.03M188.63,38.24c-.78-.82-1.74-1.23-2.88-1.23s-2.13.4-2.89,1.21c-.77.81-1.15,1.94-1.15,3.39s.38,2.56,1.15,3.39c.77.83,1.73,1.25,2.89,1.25s2.1-.41,2.88-1.23c.78-.82,1.17-1.96,1.17-3.41s-.39-2.55-1.17-3.37Z"/>
        <path class="cls-2" d="M212.95,31.41c1.24-.74,2.58-1.11,4.01-1.11v8.29h-2.18c-1.69,0-2.95.33-3.77.99-.82.66-1.23,1.81-1.23,3.45v9.72h-7.77v-22.26h7.77v3.93c.87-1.27,1.93-2.27,3.17-3.02"/>
        <path class="cls-2" d="M232.86,46.13v6.63h-3.37c-5.68,0-8.52-2.82-8.52-8.45v-7.34h-2.74v-6.47h2.74v-5.4h7.81v5.4h4.04v6.47h-4.04v7.46c0,.61.14,1.04.42,1.31.27.26.74.39,1.4.39h2.26Z"/>
        <path class="cls-2" d="M94.49,15.07c-.11,0-.2-.04-.27-.11-.08-.08-.12-.17-.12-.28h-.48c0,.26.08.46.24.62.16.16.37.23.61.23.13,0,.27-.03.38-.08.12-.04.23-.13.33-.23.08-.09.14-.19.19-.28.04-.11.07-.22.07-.34.03-.24-.06-.46-.2-.63-.16-.17-.36-.27-.59-.27-.07,0-.13,0-.19.02-.07.01-.12.04-.17.07l.1-.45h.88l.03-.45h-1.22l-.32,1.33.41.11c.04-.07.09-.11.15-.15.05-.03.12-.04.2-.04.14,0,.24.04.31.12.08.08.1.19.09.32,0,.13-.05.24-.13.34-.08.09-.19.13-.3.13"/>
        <path class="cls-2" d="M90.6,15.07c-.11,0-.2-.04-.27-.11-.07-.08-.11-.17-.12-.28h-.48c.01.26.1.46.25.62.15.16.35.23.59.23.14,0,.27-.03.39-.08.12-.04.23-.13.32-.23.08-.09.15-.19.19-.28.06-.11.07-.22.08-.34.01-.24-.05-.46-.22-.63-.15-.17-.35-.27-.59-.27-.07,0-.12,0-.19.02-.05.01-.11.04-.16.07l.09-.45h.88l.03-.45h-1.21l-.32,1.33.42.11c.04-.07.08-.11.14-.15.05-.03.12-.04.2-.04.12,0,.23.04.31.12.06.08.1.19.09.32,0,.13-.05.24-.13.34-.09.09-.19.13-.31.13"/>
        <path class="cls-2" d="M92.55,15.07c-.11,0-.2-.04-.27-.11-.08-.08-.11-.17-.12-.28h-.48c0,.26.08.46.24.62.16.16.36.23.61.23.13,0,.27-.03.39-.08.12-.04.23-.13.32-.23.08-.09.14-.19.19-.28.04-.11.07-.22.08-.34.01-.24-.05-.46-.21-.63-.16-.17-.35-.27-.59-.27-.07,0-.12,0-.19.02-.05.01-.12.04-.17.07l.1-.45h.88l.03-.45h-1.21l-.34,1.33.43.11c.04-.07.08-.11.13-.15.06-.03.13-.04.21-.04.12,0,.23.04.3.12.08.08.11.19.11.32-.01.13-.05.24-.14.34-.09.09-.19.13-.31.13"/>
        <path class="cls-2" d="M60.12,26.43h0s3.9,0,3.9,0c3.44,0,4.69-4.28,1.84-6.02-.5-.29-.97-.52-1.68-.79-.59-.21-.47-.93.08-.95h3.64c.21,0,.34.08.27.34l-1.22,7.41h5.55l1.8-2.53-1.05-1.8h2.39l1.39-1.91.77,1.91h2.29l-1.57,1.8,1.02,2.55h5.41l.77-4.69,2.41,4.68h5.2l1.83-2.51h-4.57l-1-2.03c2.59-1.78,2.2-5.78-1.09-5.78h-5.12l-1.26,7.7-4.09-10.2-7.49,10.27.81-4.94c0-.15.11-.26.26-.26h2.69s.41-2.57.41-2.57h-10.56c-4.53-.19-5.82,5.48-.89,6.7,1.19.25.88,1.14.16,1.11h-4.73s-.61,0-.61,0l-1.82,2.52h3.87ZM85.78,21.21l.39-2.5c2.62-.4,2.06,2.88-.39,2.5Z"/>
        <polygon class="cls-2" points="31.59 46.81 40.28 46.81 40.28 52.76 23.82 52.76 23.82 24.79 31.59 24.79 31.59 46.81"/>
        <path class="cls-2" d="M47.67,51.65c-1.76-.93-3.14-2.25-4.14-3.97-1-1.72-1.51-3.74-1.51-6.07s.51-4.31,1.53-6.03c1.02-1.72,2.4-3.04,4.16-3.97,1.76-.92,3.75-1.39,5.97-1.39s4.21.46,5.97,1.39c1.76.92,3.15,2.25,4.16,3.97,1.02,1.72,1.53,3.73,1.53,6.03s-.51,4.32-1.53,6.05c-1.02,1.73-2.42,3.06-4.18,3.99-1.77.92-3.77,1.39-5.99,1.39s-4.21-.46-5.97-1.39M56.35,45.08c.73-.81,1.09-1.96,1.09-3.47s-.36-2.66-1.09-3.45c-.73-.79-1.62-1.19-2.68-1.19s-1.94.4-2.65,1.19c-.72.79-1.07,1.95-1.07,3.45s.34,2.7,1.03,3.49c.69.79,1.57,1.19,2.66,1.19s1.99-.4,2.72-1.21Z"/>
        <path class="cls-2" d="M68.66,35.58c.95-1.72,2.28-3.04,3.99-3.97,1.7-.92,3.65-1.39,5.85-1.39,2.83,0,5.21.77,7.14,2.32,1.93,1.55,3.17,3.71,3.73,6.49h-8.25c-.48-1.45-1.41-2.18-2.78-2.18-.98,0-1.75.4-2.32,1.21-.57.81-.85,1.99-.85,3.55s.28,2.75.85,3.57c.57.82,1.34,1.23,2.32,1.23,1.4,0,2.33-.73,2.78-2.18h8.25c-.55,2.75-1.8,4.91-3.73,6.47-1.93,1.56-4.31,2.34-7.14,2.34-2.2,0-4.14-.46-5.85-1.39-1.71-.93-3.04-2.25-3.99-3.97-.95-1.72-1.43-3.74-1.43-6.07s.48-4.31,1.43-6.03"/>
        <path class="cls-2" d="M92.55,35.58c.83-1.72,1.97-3.04,3.41-3.97,1.44-.93,3.05-1.39,4.82-1.39,1.53,0,2.85.31,3.96.91,1.11.61,1.97,1.43,2.58,2.46v-3.09h7.77v22.26h-7.77v-3.1c-.61,1.03-1.47,1.85-2.6,2.46-1.12.61-2.44.91-3.94.91-1.77,0-3.38-.46-4.82-1.39-1.44-.93-2.58-2.25-3.41-3.99-.83-1.73-1.25-3.75-1.25-6.05s.42-4.31,1.25-6.03M106.15,38.24c-.78-.82-1.74-1.23-2.87-1.23s-2.13.4-2.89,1.21c-.77.81-1.15,1.94-1.15,3.39s.38,2.56,1.15,3.39c.77.83,1.73,1.25,2.89,1.25s2.1-.41,2.87-1.23c.78-.82,1.17-1.96,1.17-3.41s-.39-2.55-1.17-3.37Z"/>
        <rect class="cls-2" x="119.53" y="23.4" width="7.77" height="29.36"/>
        <path class="cls-2" d="M168.41,32.84c1.6,1.69,2.4,4.01,2.4,6.94v12.98h-7.77v-11.95c0-1.19-.33-2.11-.99-2.78-.66-.66-1.56-.99-2.7-.99s-2.03.33-2.69.99c-.66.66-1,1.58-1,2.78v11.95h-7.77v-11.95c0-1.19-.32-2.11-.97-2.78-.65-.66-1.54-.99-2.68-.99s-2.08.33-2.74.99c-.66.66-.99,1.58-.99,2.78v11.95h-7.77v-22.26h7.77v2.93c.69-.95,1.58-1.71,2.67-2.28,1.1-.57,2.36-.85,3.79-.85,1.64,0,3.1.36,4.38,1.07,1.28.71,2.29,1.72,3.03,3.02.79-1.22,1.84-2.2,3.13-2.96,1.29-.75,2.72-1.13,4.28-1.13,2.8,0,5,.85,6.6,2.54"/>
        <path class="cls-2" d="M175.03,35.58c.83-1.72,1.97-3.04,3.41-3.97,1.44-.93,3.05-1.39,4.82-1.39,1.53,0,2.85.31,3.96.91,1.11.61,1.97,1.43,2.58,2.46v-3.09h7.77v22.26h-7.77v-3.1c-.61,1.03-1.47,1.85-2.59,2.46-1.13.61-2.44.91-3.95.91-1.77,0-3.37-.46-4.82-1.39-1.44-.93-2.58-2.25-3.41-3.99-.83-1.73-1.25-3.75-1.25-6.05s.42-4.31,1.25-6.03M188.63,38.24c-.78-.82-1.74-1.23-2.88-1.23s-2.13.4-2.89,1.21c-.77.81-1.15,1.94-1.15,3.39s.38,2.56,1.15,3.39c.77.83,1.73,1.25,2.89,1.25s2.1-.41,2.88-1.23c.78-.82,1.17-1.96,1.17-3.41s-.39-2.55-1.17-3.37Z"/>
        <path class="cls-2" d="M212.95,31.41c1.24-.74,2.58-1.11,4.01-1.11v8.29h-2.18c-1.69,0-2.95.33-3.77.99-.82.66-1.23,1.81-1.23,3.45v9.72h-7.77v-22.26h7.77v3.93c.87-1.27,1.93-2.27,3.17-3.02"/>
        <path class="cls-2" d="M232.86,46.13v6.63h-3.37c-5.68,0-8.52-2.82-8.52-8.45v-7.34h-2.74v-6.47h2.74v-5.4h7.81v5.4h4.04v6.47h-4.04v7.46c0,.61.14,1.04.42,1.31.27.26.74.39,1.4.39h2.26Z"/>
        <path class="cls-2" d="M60.12,26.43h0s3.9,0,3.9,0c3.44,0,4.69-4.28,1.84-6.02-.5-.29-.97-.52-1.68-.79-.59-.21-.47-.93.08-.95h3.64c.21,0,.34.08.27.34l-1.22,7.41h5.55l1.8-2.53-1.05-1.8h2.39l1.39-1.91.77,1.91h2.29l-1.57,1.8,1.02,2.55h5.41l.77-4.69,2.41,4.68h5.2l1.83-2.51h-4.57l-1-2.03c2.59-1.78,2.2-5.78-1.09-5.78h-5.12l-1.26,7.7-4.09-10.2-7.49,10.27.81-4.94c0-.15.11-.26.26-.26h2.69s.41-2.57.41-2.57h-10.56c-4.53-.19-5.82,5.48-.89,6.7,1.19.25.88,1.14.16,1.11h-4.73s-.61,0-.61,0l-1.82,2.52h3.87ZM85.78,21.21l.39-2.5c2.62-.4,2.06,2.88-.39,2.5Z"/>
        <g>
          <path class="cls-5" d="M260.27,4.77h.19s.19-.02.23-.03l.14-.03s0,0,.02,0l.24-.07s0,0,0,0c.03-.01.06-.02.09-.04,0,0,.02,0,.03,0,.01,0,0,0,.02-.01l.13-.06c.19-.11.2-.11.39-.27.05-.04.11-.1.13-.13l.08-.09s0,0,0-.01c.06-.08.08-.1.15-.19.13-.19.25-.45.3-.67.04-.18.06-.32.07-.52,0-.15-.02-.32-.05-.47,0-.04-.02-.07-.03-.1v-.04s-.01,0-.02,0c-.04-.11-.05-.16-.1-.27l-.03-.06s-.01-.03-.02-.04c-.07-.12-.12-.21-.2-.32-.01-.02-.01-.02-.03-.04-.07-.09-.14-.16-.22-.23,0,0-.02-.02-.03-.03-.05-.04-.09-.08-.15-.11-.09-.06-.23-.15-.33-.19-.2-.09-.37-.15-.6-.19-.04,0-.21-.02-.23-.03h-.2c-.08.03-.55-.02-1.15.41-.07.05-.15.12-.22.18l-.19.2c-.29.37-.48.86-.48,1.35,0,.29.07.6.18.86.06.13.12.24.19.34.07.1.21.27.3.35.22.2.33.26.59.39,0,0,.01,0,.01,0,0,0,.01,0,.01,0,.02,0,0,0,.02,0l.32.11.19.04s.21.02.23.03M260.38.94c.09,0,.13,0,.21.02,0,0,0,0,.01,0l.11.02c.17.04.36.11.5.19.02.01.04.03.07.04h.01s0,0,0,0c0,0,0,0,0,0,.08.05.15.11.22.17.16.15.29.33.4.55.32.71.09,1.53-.43,1.97l-.15.12c-.25.18-.63.3-.96.3-.25,0-.51-.06-.7-.15-.17-.08-.25-.13-.39-.25-.12-.1-.2-.19-.29-.32l-.05-.08s0,0,0-.01c-.04-.08-.05-.09-.1-.19l-.09-.23c-.04-.12-.05-.24-.06-.36-.01-.17,0-.36.05-.52.04-.14.09-.29.16-.41.02-.02.03-.05.04-.07,0-.01.01-.02.02-.03l.02-.03s0,0,0,0c.07-.1.17-.22.26-.3.01,0,0,0,.01-.01l.15-.12s.02-.01.03-.02c0,0,.01,0,.02-.01.01,0,0,0,.01,0,.1-.06.24-.13.36-.17l.16-.05c.12-.03.28-.05.4-.05Z"/>
          <path class="cls-5" d="M259.43,3.71h.58c0-.27,0-.58,0-.84.31,0,.4-.01.55.28.02.04.05.1.07.14.02.05.05.09.07.14l.13.27s0,0,0,0c0,0,0,0,0,0h0c.13.01.47,0,.61,0l-.36-.73c-.05-.09-.11-.18-.2-.24-.03-.02-.07-.05-.1-.06l-.04-.02s.08-.02.2-.1c.14-.09.2-.24.22-.4,0-.04,0-.11,0-.15,0-.05-.01-.09-.02-.13v-.04c-.13-.32-.51-.37-.83-.37h-.88v2.23ZM260.01,1.89c.11,0,.32,0,.42.02.12.04.16.12.16.27s-.06.23-.17.26c-.08.02-.31.03-.41.02v-.57Z"/>
        </g>
        <g>
          <path class="cls-2" d="M94.49,15.07c-.11,0-.2-.04-.27-.11-.08-.08-.12-.17-.12-.28h-.48c0,.26.08.46.24.62.16.16.37.23.61.23.13,0,.27-.03.38-.08.12-.04.23-.13.33-.23.08-.09.14-.19.19-.28.04-.11.07-.22.07-.34.03-.24-.06-.46-.2-.63-.16-.17-.36-.27-.59-.27-.07,0-.13,0-.19.02-.07.01-.12.04-.17.07l.1-.45h.88l.03-.45h-1.22l-.32,1.33.41.11c.04-.07.09-.11.15-.15.05-.03.12-.04.2-.04.14,0,.24.04.31.12.08.08.1.19.09.32,0,.13-.05.24-.13.34-.08.09-.19.13-.3.13"/>
          <path class="cls-2" d="M90.6,15.07c-.11,0-.2-.04-.27-.11-.07-.08-.11-.17-.12-.28h-.48c.01.26.1.46.25.62.15.16.35.23.59.23.14,0,.27-.03.39-.08.12-.04.23-.13.32-.23.08-.09.15-.19.19-.28.06-.11.07-.22.08-.34.01-.24-.05-.46-.22-.63-.15-.17-.35-.27-.59-.27-.07,0-.12,0-.19.02-.05.01-.11.04-.16.07l.09-.45h.88l.03-.45h-1.21l-.32,1.33.42.11c.04-.07.08-.11.14-.15.05-.03.12-.04.2-.04.12,0,.23.04.31.12.06.08.1.19.09.32,0,.13-.05.24-.13.34-.09.09-.19.13-.31.13"/>
          <path class="cls-2" d="M92.55,15.07c-.11,0-.2-.04-.27-.11-.08-.08-.11-.17-.12-.28h-.48c0,.26.08.46.24.62.16.16.36.23.61.23.13,0,.27-.03.39-.08.12-.04.23-.13.32-.23.08-.09.14-.19.19-.28.04-.11.07-.22.08-.34.01-.24-.05-.46-.21-.63-.16-.17-.35-.27-.59-.27-.07,0-.12,0-.19.02-.05.01-.12.04-.17.07l.1-.45h.88l.03-.45h-1.21l-.34,1.33.43.11c.04-.07.08-.11.13-.15.06-.03.13-.04.21-.04.12,0,.23.04.3.12.08.08.11.19.11.32-.01.13-.05.24-.14.34-.09.09-.19.13-.31.13"/>
          <g>
            <path class="cls-2" d="M96.31,13.21c.36,0,.64-.29.64-.65s-.29-.65-.64-.65-.65.29-.65.65.29.65.65.65M96.31,11.98c.32,0,.58.26.58.58s-.26.58-.58.58-.59-.26-.59-.58.26-.58.59-.58Z"/>
            <path class="cls-2" d="M96.14,12.62h.1s.04,0,.05,0c.01,0,.03,0,.04.02.01,0,.03.02.05.05.02.02.04.05.07.09l.09.15h.11l-.12-.19s-.05-.07-.08-.09c0-.01-.03-.02-.05-.03.07-.01.12-.03.15-.07.03-.03.05-.08.05-.13,0-.03,0-.07-.03-.1-.02-.03-.04-.05-.07-.06-.04-.01-.08-.02-.14-.02h-.31v.7h.09v-.31ZM96.14,12.3h.22s.09.01.11.03c.03.02.04.05.04.08,0,.02,0,.04-.02.07-.01.02-.03.03-.05.04-.02,0-.06.01-.1.01h-.2v-.23Z"/>
          </g>
        </g>
        <rect class="cls-1" x=".51" y=".51" width="255.71" height="75.06"/>
      </g>
    </g>
  </g>
</svg>